<?xml version="1.0" encoding="utf-8"?>
<!-- Generator: Adobe Illustrator 16.0.0, SVG Export Plug-In . SVG Version: 6.00 Build 0)  -->
<!DOCTYPE svg PUBLIC "-//W3C//DTD SVG 1.1//EN" "http://www.w3.org/Graphics/SVG/1.1/DTD/svg11.dtd">
<svg version="1.1" id="Ebene_1" xmlns="http://www.w3.org/2000/svg" xmlns:xlink="http://www.w3.org/1999/xlink" x="0px" y="0px"
	 width="16px" height="16px" viewBox="0 0 16 16" enable-background="new 0 0 16 16" xml:space="preserve">
<g>
	<path d="M13.67,7.312v6.781c0,1.053-0.862,1.907-1.921,1.907h-9.83c-1.059,0-1.923-0.854-1.923-1.907V4.329
		c0-1.053,0.864-1.908,1.923-1.908h9.83c0.476,0,0.911,0.171,1.245,0.458l-0.982,0.983c-0.077-0.043-0.166-0.067-0.263-0.067h-9.83
		c-0.299,0-0.539,0.24-0.539,0.535v9.764c0,0.296,0.24,0.534,0.539,0.534h9.83c0.297,0,0.54-0.238,0.54-0.534V8.69L13.67,7.312z"/>
</g>
<polygon points="8.342,11.406 16.005,3.742 14.685,2.422 7.02,10.087 3.902,6.97 2.582,8.29 7.019,12.728 7.019,12.728 7.02,12.728 
	8.086,11.662 8.342,11.406 "/>
</svg>
